<?xml version="1.0" encoding="UTF-8"?>
<svg id="Camada_2" data-name="Camada 2" xmlns="http://www.w3.org/2000/svg" viewBox="0 0 698.36 1015.19">
  <defs>
    <style>
      .cls-1 {
        fill: #22333a;
      }

      .cls-1, .cls-2, .cls-3 {
        stroke-width: 0px;
      }

      .cls-2 {
        fill: #fff;
      }

      .cls-3 {
        fill: #ee2201;
      }
    </style>
  </defs>
  <g id="Layer_1" data-name="Layer 1">
    <g>
      <circle class="cls-3" cx="501.27" cy="818.11" r="197.08"/>
      <g>
        <path class="cls-1" d="M257.27,818.11c0-64.32,25.03-122.89,65.84-166.53v-260.21c0-11.53,9.38-20.91,20.91-20.91s20.89,9.38,20.89,20.91v224.49c24.62-16.66,52.44-28.93,82.32-35.71l18.47-189.93c1.12-11.46,11.37-19.91,22.84-18.78,11.48,1.1,19.9,11.36,18.79,22.82l-17.52,180.12c3.81-.18,7.63-.28,11.48-.28,39.09,0,76.06,9.26,108.85,25.67l19.57-214.7,10.06-110.5c27.56-5.76,48.26-30.19,48.26-59.46v-11.32H0v11.32c0,29.27,20.7,53.7,48.26,59.46l9.66,106.06,43.8,480.51c4.32,49.64,45.87,87.73,95.71,87.73h97.91c-24.1-37.82-38.08-82.68-38.08-130.76ZM239.61,784.02c-.68.06-1.37.09-2.05.09-4.84,0-9.47-1.65-13.25-4.76-4.31-3.55-6.98-8.56-7.51-14.12l-36.07-370.97c-1.12-11.46,7.31-21.72,18.78-22.82,11.48-1.14,21.72,7.31,22.84,18.78l36.07,370.97c1.1,11.48-7.31,21.72-18.79,22.84Z"/>
        <path class="cls-1" d="M688.02,157.65c0-33.56-27.2-60.76-60.76-60.76h-147.12v-36.63c0-33.28-26.98-60.26-60.26-60.26h-151.73c-33.29,0-60.26,26.98-60.26,60.26v36.63H60.76C27.2,96.89,0,124.1,0,157.65v11.32h688.02v-11.32ZM448.21,96.89h-208.94v-30.76c0-13.64,11.05-24.71,24.7-24.71h159.54c13.64,0,24.71,11.06,24.71,24.71v30.76Z"/>
      </g>
      <path class="cls-2" d="M599.09,915.93h0c-13.08,13.08-34.29,13.08-47.36,0l-50.45-50.45-50.45,50.45c-13.08,13.08-34.29,13.08-47.36,0h0c-13.08-13.08-13.08-34.29,0-47.36l50.45-50.45-50.45-50.45c-13.08-13.08-13.08-34.29,0-47.36h0c13.08-13.08,34.29-13.08,47.36,0l50.45,50.45,50.45-50.45c13.08-13.08,34.29-13.08,47.36,0h0c13.08,13.08,13.08,34.29,0,47.36l-50.45,50.45,50.45,50.45c13.08,13.08,13.08,34.29,0,47.36Z"/>
    </g>
  </g>
</svg>