<svg id="Layer_2" height="512" viewBox="0 0 512 512" width="512" xmlns="http://www.w3.org/2000/svg" data-name="Layer 2"><g id="Icon"><path id="_06" d="m296.46 245.48v96.04c0 6.9-5.6 12.5-12.5 12.5-6.9 0-12.5-5.6-12.5-12.5v-96.04c0-6.9 5.6-12.5 12.5-12.5 6.9 0 12.5 5.6 12.5 12.5zm215.54-95.48v212c0 82.84-67.16 150-150 150h-212c-82.84 0-150-67.16-150-150v-212c0-82.84 67.16-150 150-150h212c82.84 0 150 67.16 150 150zm-106-1.5c0-13.81-11.19-25-25-25h-67.5c0-13.81-11.19-25-25-25h-65c-13.81 0-25 11.19-25 25h-67.5c-13.81 0-25 11.19-25 25s11.19 25 25 25v190c0 27.61 22.39 50 50 50h150c27.61 0 50-22.39 50-50v-190c13.81 0 25-11.19 25-25zm-177.96 84.48c-6.9 0-12.5 5.6-12.5 12.5v96.04c0 6.9 5.6 12.5 12.5 12.5 6.9 0 12.5-5.6 12.5-12.5v-96.04c0-6.9-5.6-12.5-12.5-12.5z" data-name="06"/></g></svg>