<svg fill="none" height="32" viewBox="0 0 32 32" width="32" xmlns="http://www.w3.org/2000/svg"><rect fill="#000" height="32" rx="10" width="32"/><g clip-rule="evenodd" fill="#fff" fill-rule="evenodd"><path d="m10.0048 12.3124c.072-.0772.1729-.121.2785-.121h10.6659c.1056 0 .2064.0438.2784.121.0721.0772.1089.1808.1016.2861l-.7618 11.0469c-.0138.1997-.1799.3547-.3801.3547h-9.1422c-.2002 0-.3662-.155-.38-.3547l-.76185-11.0469c-.00727-.1053.02951-.2089.10155-.2861zm.6866.6409.7093 10.2849h8.4311l.7093-10.2849z"/><path d="m23.237 10.668c0 .2104-.1705.381-.3809.381h-14.47517c-.21038 0-.38093-.1706-.38093-.381 0-.2103.17055-.3809.38093-.3809h14.47517c.2104 0 .3809.1706.3809.3809z"/><path d="m15.6153 21.3313c-.2104 0-.3809-.1706-.3809-.381v-6.0948c0-.2103.1705-.3809.3809-.3809s.3809.1706.3809.3809v6.0948c0 .2104-.1705.381-.3809.381z"/><path d="m13.3355 21.3338c-.2101.0117-.3898-.1491-.4015-.3592l-.3387-6.0959c-.0116-.2101.1492-.3898.3593-.4015.21-.0117.3898.1491.4014.3592l.3387 6.096c.0117.21-.1492.3898-.3592.4014z"/><path d="m17.8989 21.3338c.21.0117.3898-.1491.4015-.3592l.3386-6.0959c.0117-.2101-.1491-.3898-.3592-.4015-.21-.0117-.3898.1491-.4015.3592l-.3386 6.096c-.0117.21.1491.3898.3592.4014z"/><path d="m10.6602 9.90463c0-1.0519.8527-1.90463 1.9046-1.90463h6.0948c1.0519 0 1.9046.85273 1.9046 1.90463v.76187c0 .2104-.1705.3809-.3809.3809h-9.1422c-.2104 0-.3809-.1705-.3809-.3809zm1.9046-1.14278c-.6312 0-1.1428.51164-1.1428 1.14278v.38097h8.3804v-.38097c0-.63114-.5117-1.14278-1.1428-1.14278z"/></g></svg>