<?xml version="1.0" encoding="UTF-8"?>
<svg id="Camada_2" data-name="Camada 2" xmlns="http://www.w3.org/2000/svg" viewBox="0 0 136.75 136.74">
  <defs>
    <style>
      .cls-1 {
        fill: #000;
        stroke-width: 0px;
      }
    </style>
  </defs>
  <g id="Layer_1" data-name="Layer 1">
    <g id="icon">
      <path class="cls-1" d="M132.61,19.83l-15.7-15.7c-5.51-5.51-14.49-5.51-20,0l-12.96,12.96,35.7,35.7,12.96-12.96c2.67-2.67,4.14-6.22,4.14-10s-1.47-7.33-4.14-10Z"/>
      <path class="cls-1" d="M37.33,65.34l-4.23,32.01c-.23,1.73.36,3.46,1.59,4.69,1.06,1.06,2.48,1.64,3.96,1.64.24,0,.49-.02.73-.05l32.01-4.23c1.22-.16,2.35-.72,3.22-1.59l37.11-37.11-35.7-35.7-37.11,37.11c-.87.87-1.43,2-1.59,3.22Z"/>
      <path class="cls-1" d="M124.18,83.07c-3.09,0-5.6,2.51-5.6,5.6v25.38c0,6.33-5.15,11.49-11.49,11.49H22.69c-6.33,0-11.49-5.15-11.49-11.49V29.65c0-6.33,5.15-11.49,11.49-11.49h25.38c3.09,0,5.6-2.51,5.6-5.6s-2.51-5.6-5.6-5.6h-25.38C10.18,6.97,0,17.15,0,29.65v84.4c0,12.51,10.18,22.69,22.69,22.69h84.41c12.51,0,22.69-10.18,22.69-22.69v-25.38c0-3.09-2.51-5.6-5.6-5.6Z"/>
    </g>
  </g>
</svg>