<svg id="Layer_2" height="512" viewBox="0 0 512 512" width="512" xmlns="http://www.w3.org/2000/svg" data-name="Layer 2"><g id="Icon"><path id="_01" d="m362 0h-212c-82.84 0-150 67.16-150 150v212c0 82.84 67.16 150 150 150h212c82.84 0 150-67.16 150-150v-212c0-82.84-67.16-150-150-150zm49 273.79v103.34c0 33.08-26.92 60-60 60h-45c-5.52 0-10-4.48-10-10v-112.87c0-22.06-17.94-40-40-40s-40 17.94-40 40v112.87c0 5.52-4.48 10-10 10h-45c-33.08 0-60-26.92-60-60v-103.34c-16.99-2.77-30-17.55-30-35.31 0-10.02 4.24-19.64 11.63-26.4l132.88-121.49c11.09-10.14 25.46-15.72 40.49-15.72s29.4 5.58 40.49 15.72l132.88 121.49c7.39 6.76 11.63 16.38 11.63 26.4 0 17.76-13.01 32.54-30 35.31zm20-35.31c0 14.23-11.54 25.77-25.77 25.77h-4.23v112.87c0 27.61-22.39 50-50 50h-45v-112.87c0-27.61-22.39-50-50-50s-50 22.39-50 50v112.87h-45c-27.61 0-50-22.39-50-50v-112.87h-4.23c-14.23 0-25.77-11.54-25.77-25.77 0-7.24 3.04-14.14 8.38-19.02l132.88-121.49c19.1-17.46 48.38-17.46 67.48 0l132.88 121.49c5.34 4.88 8.38 11.79 8.38 19.02z" data-name="01"/></g></svg>