<svg id="Layer_2" height="512" viewBox="0 0 512 512" width="512" xmlns="http://www.w3.org/2000/svg" data-name="Layer 2"><g id="Icon"><path id="_01" d="m362 0h-212c-82.84 0-150 67.16-150 150v212c0 82.84 67.16 150 150 150h212c82.84 0 150-67.16 150-150v-212c0-82.84-67.16-150-150-150zm43.23 264.26h-4.23v112.87c0 27.61-22.39 50-50 50h-45v-112.87c0-27.61-22.39-50-50-50-27.61 0-50 22.39-50 50v112.87h-45c-27.61 0-50-22.39-50-50v-112.87h-4.23c-14.23 0-25.77-11.54-25.77-25.77 0-7.24 3.04-14.14 8.38-19.02l132.88-121.5c19.1-17.46 48.37-17.46 67.48 0l132.88 121.49c5.34 4.88 8.38 11.79 8.38 19.02 0 14.23-11.54 25.77-25.77 25.77z" data-name="01"/></g></svg>