<svg id="Layer_1" height="512" viewBox="0 0 64 64" width="512" xmlns="http://www.w3.org/2000/svg"><clipPath id="SVGID_4_"><circle id="SVGID_3_" cx="32.005" cy="31.974" r="32"/></clipPath><g id="Browser_1_copy"><g><path d="m32.005-.026c-17.673 0-32 14.327-32 32s14.327 32 32 32 32-14.327 32-32-14.327-32-32-32z" fill="#e6e5e5"/></g><g><g/></g><g><path d="m46.357 47.519h-28.702c-2.419 0-4.398-1.979-4.398-4.398v-22.304c0-2.419 1.979-4.398 4.398-4.398h28.702c2.419 0 4.398 1.979 4.398 4.398v22.304c0 2.419-1.979 4.398-4.398 4.398z" fill="#fff"/></g><g><path d="m50.755 23.341v-2.524c0-2.419-1.979-4.398-4.398-4.398h-28.702c-2.419 0-4.398 1.979-4.398 4.398v2.524z" fill="#161c27"/></g><g><circle cx="17.534" cy="19.88" fill="#db2b42" r=".983"/></g><g><circle cx="20.335" cy="19.88" fill="#8ad5dd" r=".983"/></g><g><circle cx="23.137" cy="19.88" fill="#e6e5e5" r=".983"/></g><g><path d="m44.705 19.604h2.227v.5h-2.227z" fill="#fff"/></g><g><path d="m46.278 21.356-.377-.328 1-1.148-1-1.148.377-.328 1.287 1.476z" fill="#fff"/></g><g><path d="m41.034 21.445h-12.519c-.861 0-1.565-.704-1.565-1.565 0-.861.704-1.565 1.565-1.565h12.519c.861 0 1.565.704 1.565 1.565 0 .861-.705 1.565-1.565 1.565z" fill="#fff"/></g><g><g><path d="m28.832 20.629-.345-1.409h.274l.134.64c.035.172.068.352.092.491h.004c.023-.148.062-.315.103-.493l.152-.638h.27l.141.648c.035.167.064.324.085.477h.005c.024-.155.059-.315.096-.487l.146-.638h.262l-.379 1.409h-.275l-.146-.663c-.036-.16-.061-.294-.077-.447h-.005c-.024.15-.052.287-.094.447l-.163.663z" fill="#161c27"/></g><g><path d="m30.667 20.629-.345-1.409h.274l.134.64c.035.172.068.352.092.491h.004c.023-.148.062-.315.103-.493l.152-.638h.27l.141.648c.035.167.064.324.085.477h.005c.024-.155.059-.315.096-.487l.146-.638h.262l-.379 1.409h-.275l-.146-.663c-.036-.16-.061-.294-.077-.447h-.005c-.024.15-.052.287-.094.447l-.163.663z" fill="#161c27"/></g><g><path d="m32.502 20.629-.345-1.409h.274l.134.64c.035.172.068.352.092.491h.004c.023-.148.062-.315.103-.493l.152-.638h.27l.141.648c.035.167.064.324.085.477h.005c.024-.155.059-.315.096-.487l.146-.638h.262l-.379 1.409h-.275l-.146-.663c-.036-.16-.061-.294-.077-.447h-.005c-.024.15-.052.287-.094.447l-.163.663z" fill="#161c27"/></g><g><path d="m33.915 20.486c0-.096.067-.165.159-.165.094 0 .159.067.159.165 0 .095-.063.166-.159.166-.094 0-.159-.071-.159-.166z" fill="#161c27"/></g></g><g><g><path d="m29.896 54.586 14.809-14.846-1.38-10.901-10.907-1.419-14.843 14.844z" fill="#db2b42"/></g><g><g><circle cx="37.722" cy="34.439" fill="#fff" r="2.425"/></g><g><path d="m37.722 32.514c1.063 0 1.925.862 1.925 1.925s-.862 1.925-1.925 1.925-1.925-.862-1.925-1.925.862-1.925 1.925-1.925m0-1c-1.613 0-2.925 1.312-2.925 2.925s1.312 2.925 2.925 2.925 2.925-1.312 2.925-2.925-1.312-2.925-2.925-2.925z" fill="#161c27"/></g></g><g><g><path d="m33.724 46.778-.98-.98c-.656.616-1.474 1.071-2.081 1.192l-.676-1.221c.627-.163 1.404-.515 2.021-1.132.636-.636.756-1.384.271-1.869-.455-.455-1.101-.394-2.12.081-1.445.677-2.617.878-3.557-.062-.868-.868-.928-2.141-.09-3.342l-.99-.99.828-.828.94.94c.656-.618 1.242-.9 1.727-1.061l.657 1.202c-.354.132-1.031.344-1.717 1.031-.708.708-.596 1.323-.253 1.667.414.414 1.01.284 2.211-.233 1.557-.707 2.608-.666 3.507.233.858.858 1.02 2.212.089 3.505l1.041 1.041z" fill="#fff"/></g></g></g></g></svg>