<svg height="512" viewBox="0 0 64 64" width="512" xmlns="http://www.w3.org/2000/svg"><g id="Layer_42" data-name="Layer 42"><path d="m49.45 3.25h-34.9a11.31 11.31 0 0 0 -11.3 11.3v34.9a11.31 11.31 0 0 0 11.3 11.3h34.9a11.31 11.31 0 0 0 11.3-11.3v-34.9a11.31 11.31 0 0 0 -11.3-11.3zm-4.74 23.39-19.46 19.43a.82.82 0 0 1 -.35.2l-8.37 2.08a.75.75 0 0 1 -.91-.91l2.11-8.37a.8.8 0 0 1 .19-.35l19.47-19.43a.74.74 0 0 1 .53-.21.75.75 0 0 1 .53.22l6.26 6.28a.75.75 0 0 1 0 1.06zm3.61-4.95a3.59 3.59 0 0 1 -2.56 1.06 3.6 3.6 0 0 1 -2.56-1.06l-.85-.86a3.63 3.63 0 0 1 2.57-6.19 3.65 3.65 0 0 1 2.57 1.07l.85.85a3.64 3.64 0 0 1 -.02 5.13z"/></g></svg>