<svg id="Filled_Expand" height="512" viewBox="0 0 64 64" width="512" xmlns="http://www.w3.org/2000/svg" data-name="Filled Expand"><path d="m18 4h1a6.826 6.826 0 0 1 4.828-2h12.172v4a15 15 0 0 1 -3 9h-20v-6a5 5 0 0 1 5-5z" fill="#cb8260"/><path d="m33 15a15 15 0 0 0 3-9v-2h-10.172a6.826 6.826 0 0 0 -4.828 2h-1a5 5 0 0 0 -5 5v4z" fill="#be734c"/><path d="m13 15v7l4 8h12l4-8v-7h-1.6a18.256 18.256 0 0 1 -11.4-4 7.846 7.846 0 0 1 -6.839 4z" fill="#ffdcd2"/><path d="m15 26 2 4h12l4-8v-7h-1.6a18.256 18.256 0 0 1 -11.4-4 7.835 7.835 0 0 1 -5 3.769z" fill="#ffcfbe"/><path d="m37 37.451-9.5-2.451v-7h-9v7l-9.5 2.451a8 8 0 0 0 -6 7.749v16.8h40v-16.8a8 8 0 0 0 -6-7.749z" fill="#f4fcff"/><path d="m37 37.451-9.5-2.451v-7h-6v9l-9.5 2.451a8 8 0 0 0 -6 7.749v14.8h37v-16.8a8 8 0 0 0 -6-7.749z" fill="#e3f7ff"/><path d="m32 36.161v25.839h4v-24.807z" fill="#695f6e"/><path d="m10 37.193v24.807h4v-25.839z" fill="#7d7282"/><path d="m12 39.451a8.021 8.021 0 0 0 -2 .823v21.726h4v-23.065z" fill="#695f6e"/><path d="m28.121 36.879a7.242 7.242 0 0 1 -5.121 2.121 7.242 7.242 0 0 1 -5.121-2.121 16.657 16.657 0 0 1 -4.879-11.779v-3.1l.309.343a7.929 7.929 0 0 0 9.691 1.657 7.929 7.929 0 0 0 9.691-1.657l.309-.343v3.1a16.657 16.657 0 0 1 -4.879 11.779z" fill="#cb8260"/><path d="m23 24a7.925 7.925 0 0 1 -8-.243v1.343a16.657 16.657 0 0 0 4.879 11.778 7.23 7.23 0 0 0 4.121 2.044 7.23 7.23 0 0 0 4.121-2.043 16.657 16.657 0 0 0 4.879-11.779v-3.1l-.309.343a7.929 7.929 0 0 1 -9.691 1.657z" fill="#be734c"/><path d="m52.82 52h4v10h-4z" fill="#8ccbf2"/><path d="m49.82 38-1.132 9.054a6.18 6.18 0 0 0 6.132 6.946 6.179 6.179 0 0 0 6.131-6.946l-1.131-9.054z" fill="#ceeaff"/><path d="m50.688 47.054a6.175 6.175 0 0 0 5.132 6.857 6.175 6.175 0 0 0 5.131-6.857l-.881-7.054h-8.5z" fill="#aedcff"/><path d="m60.445 43h-11.245l-.507 4.054a6.18 6.18 0 0 0 6.127 6.946 6.179 6.179 0 0 0 6.131-6.946z" fill="#ff838b"/><path d="m60.445 43h-9.245l-.507 4.054a6.175 6.175 0 0 0 5.132 6.857 6.175 6.175 0 0 0 5.131-6.857z" fill="#f45f69"/><circle cx="28" cy="19" r="1"/><circle cx="18" cy="19" r="1"/><path d="m23 30.4a3.715 3.715 0 0 0 2.638-1.091 1 1 0 0 0 -1.414-1.414 1.733 1.733 0 0 1 -2.448 0 1 1 0 0 0 -1.414 1.414 3.715 3.715 0 0 0 2.638 1.091z"/><circle cx="23" cy="43" r="1"/><circle cx="23" cy="48" r="1"/><circle cx="23" cy="53" r="1"/><circle cx="23" cy="58" r="1"/><path d="m60.2 52.572a7.182 7.182 0 0 0 1.741-5.642l-1.131-9.054a1 1 0 0 0 -.99-.876h-10a1 1 0 0 0 -.992.876l-1.128 9.054a7.166 7.166 0 0 0 4.124 7.41v6.66h-1a1 1 0 1 0 0 2h8a1 1 0 0 0 0-2h-1v-6.66a7.184 7.184 0 0 0 2.376-1.768zm-9.5-13.572h8.234l.375 3h-8.981zm5.12 22h-2v-6.079a6.369 6.369 0 0 0 2 0zm-1-8a5.179 5.179 0 0 1 -5.14-5.822l.4-3.178h9.484l.4 3.178a5.179 5.179 0 0 1 -5.144 5.822z"/><path d="m37.249 36.483-6.2-1.6a17.536 17.536 0 0 0 2.951-9.783v-9.791a16.093 16.093 0 0 0 3-9.309v-4a1 1 0 0 0 -1-1h-12.171a7.771 7.771 0 0 0 -5.229 2h-.6a6.006 6.006 0 0 0 -6 6v16.1a17.536 17.536 0 0 0 2.952 9.782l-6.2 1.6a9 9 0 0 0 -6.752 8.718v16.8a1 1 0 0 0 1 1h40a1 1 0 0 0 1-1v-16.8a9 9 0 0 0 -6.751-8.717zm-28.249 24.517h-5v-15.8a6.987 6.987 0 0 1 5-6.69zm4 0h-2v-23.032l2-.516zm1-52a4 4 0 0 1 4-4h1a1 1 0 0 0 .707-.293 5.789 5.789 0 0 1 4.122-1.707h11.171v3a14.088 14.088 0 0 1 -2.525 8h-1.075a17.314 17.314 0 0 1 -10.778-3.781 1 1 0 0 0 -1.492.29 6.851 6.851 0 0 1 -5.13 3.434zm0 6.96a8.86 8.86 0 0 0 6.252-3.518 19.338 19.338 0 0 0 11.148 3.558h.6v5.616l-.052.058a6.9 6.9 0 0 1 -8.469 1.448 1 1 0 0 0 -.958 0 6.9 6.9 0 0 1 -8.469-1.448l-.052-.058zm0 9.14v-.8a8.89 8.89 0 0 0 9 .821 8.89 8.89 0 0 0 9-.821v.8a15.557 15.557 0 0 1 -4.586 11.071 6.243 6.243 0 0 1 -8.828 0 15.557 15.557 0 0 1 -4.586-11.071zm17 35.9h-16v-24.064l1.282-.331c.288.333.575.666.89.981a8.242 8.242 0 0 0 11.656 0c.315-.315.6-.648.89-.981l1.282.331zm4 0h-2v-23.548l2 .516zm7 0h-5v-22.493a6.987 6.987 0 0 1 5 6.69z"/></svg>