<svg id="Capa_1" enable-background="new 0 0 512 512" height="512" viewBox="0 0 512 512" width="512" xmlns="http://www.w3.org/2000/svg"><g><g><path d="m100 512h150l16-10 14 10h55c8.284 0 15-6.716 15-15v-137.686c0-33.132-21.276-61.939-52.943-71.684l-17.057-5.247-16 6.617-14-15.848-4.592-1.413h-140.817l-4.591 1.413-14 14.848-16-5.617-17.057 5.248c-31.667 9.744-52.943 38.552-52.943 71.683v137.686c0 8.284 6.716 15 15 15h55l16-10z" fill="#f9f9f9"/></g><path d="m297.057 287.631-17.057-5.248-16 6.617-14-15.848-4.592-1.413h-70.408v240.261h75l16-10 14 10h55c8.284 0 15-6.716 15-15v-137.686c0-33.131-21.276-61.939-52.943-71.683z" fill="#e2dff4"/><path d="m250 273.152v238.848h30v-229.617z" fill="#453d83"/><path d="m70 282.383v229.617h30v-238.848z" fill="#8e4dd5"/><g><path d="m175.002 400c-8.282 0-15.002-6.716-15.002-15s6.709-15 14.992-15h.01c8.283 0 14.998 6.716 14.998 15s-6.715 15-14.998 15z" fill="#8e4dd5"/></g><g><path d="m175.002 460c-8.282 0-15.002-6.716-15.002-15s6.709-15 14.992-15h.01c8.283 0 14.998 6.716 14.998 15s-6.715 15-14.998 15z" fill="#8e4dd5"/></g><path d="m175.002 370h-.002v30h.002c8.283 0 14.998-6.716 14.998-15s-6.715-15-14.998-15z" fill="#453d83"/><path d="m175.002 430h-.002v30h.002c8.283 0 14.998-6.716 14.998-15s-6.715-15-14.998-15z" fill="#453d83"/><path d="m90 127.607v57.851l9 44.542h153l8-44.542v-57.851l-110-50.607z" fill="#ffdecf"/><path d="m175 230h77l8-44.542v-57.851l-85-39.105z" fill="#ffcdbe"/><path d="m290 68.931v-53.931c0-8.284-6.716-15-15-15h-81.716c-18.874 0-36.657 7.086-50.314 20h-27.97c-24.853 0-45 20.147-45 45v11.703c0 19.012 6.819 37.25 20 50.904h13.377c18.038 0 34.289-9.842 42.773-25.216 13.657 15.928 33.609 25.216 54.905 25.216h58.945c18.793-13.576 30-35.382 30-58.676z" fill="#b46e3d"/><path d="m275 0h-81.716c-6.253 0-12.381.794-18.284 2.304v120.452c8.19 3.156 16.998 4.852 26.056 4.852h58.944c18.793-13.576 30-35.383 30-58.676v-53.932c0-8.284-6.716-15-15-15z" fill="#865240"/><path d="m175 330c-46.944 0-85-38.056-85-85v-59.542c14.387 21.58 38.606 34.542 64.542 34.542h40.916c25.936 0 50.155-12.962 64.542-34.542v59.542c0 46.944-38.056 85-85 85z" fill="#b46e3d"/><path d="m195.458 220h-20.458v110c46.944 0 85-38.056 85-85v-59.542c-14.387 21.58-38.606 34.542-64.542 34.542z" fill="#865240"/><path d="m395 120h-15v-15c0-8.284-6.716-15-15-15s-15 6.716-15 15v15h-15c-8.284 0-15 6.716-15 15s6.716 15 15 15h15v15c0 8.284 6.716 15 15 15s15-6.716 15-15v-15h15c8.284 0 15-6.716 15-15s-6.716-15-15-15z" fill="#ffcd00"/><g><path d="m447 412c-8.284 0-15 6.716-15 15v70h30v-70c0-8.284-6.716-15-15-15z" fill="#e2dff4"/><path d="m462 427c0-8.284-6.716-15-15-15v85h15z" fill="#bebcdd"/><path d="m477 512h-60c-8.284 0-15-6.716-15-15s6.716-15 15-15h60c8.284 0 15 6.716 15 15s-6.716 15-15 15z" fill="#f9f9f9"/><path d="m477 482h-30v30h30c8.284 0 15-6.716 15-15s-6.716-15-15-15z" fill="#e2dff4"/><path d="m382 342v35c0 35.841 29.159 65 65 65s65-29.159 65-65v-35l-65-20z" fill="#ff7d47"/><path d="m447 322v120c35.841 0 65-29.159 65-65v-35z" fill="#ff405c"/><path d="m512 297c0-8.284-6.716-15-15-15h-100c-8.284 0-15 6.716-15 15v45h130z" fill="#f9f9f9"/><path d="m512 297c0-8.284-6.716-15-15-15h-50v60h65z" fill="#e2dff4"/></g></g></svg>