<?xml version="1.0" encoding="iso-8859-1"?>
<!-- Generator: Adobe Illustrator 18.0.0, SVG Export Plug-In . SVG Version: 6.00 Build 0)  -->
<!DOCTYPE svg PUBLIC "-//W3C//DTD SVG 1.1//EN" "http://www.w3.org/Graphics/SVG/1.1/DTD/svg11.dtd">
<svg version="1.1" id="Capa_1" xmlns="http://www.w3.org/2000/svg" xmlns:xlink="http://www.w3.org/1999/xlink" x="0px" y="0px"
	 viewBox="0 0 395 395" style="enable-background:new 0 0 395 395;" xml:space="preserve">
<g>
	<path d="M313.001,0H81.999C36.785,0,0,36.784,0,81.998v230.993C0,358.211,36.785,395,81.999,395h231.002
		C358.216,395,395,358.211,395,312.991V81.998C395,36.784,358.216,0,313.001,0z M380,312.991C380,349.94,349.945,380,313.001,380
		H81.999C45.056,380,15,349.94,15,312.991V81.998C15,45.055,45.056,15,81.999,15h231.002C349.945,15,380,45.055,380,81.998V312.991z
		"/>
	<path d="M166.185,140.234V75.079c1.309-1.731,2.092-3.877,2.092-6.217v-1.036c0-5.704-4.624-10.326-10.33-10.326h-24.274
		c-5.705,0-10.333,4.622-10.333,10.326v1.036c0,2.34,0.787,4.485,2.096,6.217v65.154c-16.445,7.695-27.87,24.392-27.87,43.717
		v147.499c0,3.341,2.709,6.051,6.05,6.051h84.389c3.338,0,6.046-2.71,6.046-6.051V183.95
		C194.051,164.626,182.627,147.93,166.185,140.234z"/>
	<path d="M280.771,179.127h-60.376c-8.485,10.437-14.214,24.299-16.032,37.014c-3.994,27.927,11.363,53.73,34.786,60.162v41.505
		h-9.028c-3.274,0-5.929,2.654-5.929,5.929v8.007c0,3.274,2.654,5.929,5.929,5.929h40.927c3.274,0,5.929-2.654,5.929-5.929v-8.007
		c0-3.274-2.654-5.929-5.929-5.929h-9.031v-41.505c23.424-6.431,38.78-32.235,34.787-60.162
		C294.985,203.426,289.258,189.564,280.771,179.127z"/>
</g>
<g>
</g>
<g>
</g>
<g>
</g>
<g>
</g>
<g>
</g>
<g>
</g>
<g>
</g>
<g>
</g>
<g>
</g>
<g>
</g>
<g>
</g>
<g>
</g>
<g>
</g>
<g>
</g>
<g>
</g>
</svg>
