<svg id="Filled" height="512" viewBox="0 0 512 512" width="512" xmlns="http://www.w3.org/2000/svg"><path d="m424 264s16-16 16-56l-24 8s0-40-48-56v32s-32-8-64 0c0 0 8 40 32 56l-32 16s24 40 72 8v32s32-16 48-40z" fill="#818a55"/><path d="m192 256c0 24 24 32 24 32 32 16 32 40 32 56v96h-192v-96c0-16 0-40 32-56 0 0 24-8 24-32s-24-32-24-32c-32-16-32-40-32-56v-96h192v96c0 16 0 40-32 56 0 0-24 8-24 32z" fill="#e8edf1"/><path d="m56 424h192v64h-192z" fill="#93573d"/><path d="m56 24h192v64h-192z" fill="#93573d"/><path d="m40 24h224v32h-224z" fill="#ab6647"/><path d="m40 456h224v32h-224z" fill="#ab6647"/><path d="m189.032 204.759a31.8 31.8 0 0 0 -21.032 30.057v77.184c0 16 16 32 32 40s16 24 16 40h-128c0-16 0-32 16-40s32-24 32-40v-77.184a31.8 31.8 0 0 0 -21.032-30.057c-26.968-9.524-26.968-36.759-26.968-36.759v-24l13.953-8.372a48 48 0 0 1 51.321 1.222l6.183 4.121a48 48 0 0 0 36.043 7.129l20.5-4.1v24s0 27.235-26.968 36.759z" fill="#c2c5c6"/><circle cx="248" cy="456" fill="#931237" r="32"/><circle cx="312" cy="456" fill="#931237" r="32"/><circle cx="280" cy="400" fill="#720e2a" r="32"/><circle cx="344" cy="400" fill="#720e2a" r="32"/><circle cx="376" cy="456" fill="#931237" r="32"/><circle cx="408" cy="400" fill="#720e2a" r="32"/><circle cx="312" cy="344" fill="#931237" r="32"/><circle cx="376" cy="344" fill="#931237" r="32"/><path d="m88 400h128a8 8 0 0 0 8-8c0-16.46 0-36.944-20.422-47.155-13.369-6.685-27.578-20.468-27.578-32.845v-77.184a23.8 23.8 0 0 1 15.7-22.516c31.933-11.276 32.3-42.957 32.3-44.3v-24a8 8 0 0 0 -9.568-7.845l-20.5 4.1a39.729 39.729 0 0 1 -30.032-5.941l-6.183-4.122a56.254 56.254 0 0 0 -59.875-1.425l-13.958 8.373a8 8 0 0 0 -3.884 6.86v24c0 1.343.367 33.024 32.3 44.3a23.8 23.8 0 0 1 15.7 22.516v77.184c0 12.377-14.209 26.16-27.578 32.845-20.422 10.211-20.422 30.695-20.422 47.155a8 8 0 0 0 8 8zm19.578-40.845a80.028 80.028 0 0 0 24.5-18.949c7.798-9.106 11.922-18.855 11.922-28.206v-77.184a39.826 39.826 0 0 0 -26.368-37.6c-21.106-7.453-21.62-28.38-21.632-29.216v-19.471l10.068-6.041a40.182 40.182 0 0 1 42.769 1.018l6.183 4.122a55.623 55.623 0 0 0 42.045 8.317l10.935-2.186v14.241c0 .216-.247 21.664-21.632 29.216a39.826 39.826 0 0 0 -26.368 37.6v77.184c0 9.351 4.124 19.1 11.926 28.206a80.028 80.028 0 0 0 24.5 18.949c9.147 4.575 11.084 12.635 11.474 24.845h-111.8c.39-12.21 2.327-20.27 11.478-24.845z"/><path d="m479.9 321.235a8 8 0 0 0 -6.669-9.139 109.9 109.9 0 0 0 -25.226-1.141 88.812 88.812 0 0 0 -7.714-30.238 95.969 95.969 0 0 0 -7.975-14.276c5.1-6.9 15.68-25.224 15.68-58.441a8 8 0 0 0 -10.53-7.59l-14.888 4.963c-3.34-14.618-14.538-40.458-52.052-52.963a8 8 0 0 0 -10.526 7.59v22.344c-12.507-1.91-35.08-3.82-57.94 1.9a8 8 0 0 0 -5.905 9.33c.305 1.524 6.752 32.781 25.517 52.651l-21.25 10.625a8 8 0 0 0 -3.282 11.271c.446.743 11.172 18.266 32.6 23.083 12.1 2.721 24.928.892 38.265-5.434v18.23c0 .268.025.532.051.8a40.069 40.069 0 0 0 -24.056 15.228 39.982 39.982 0 0 0 -68.531 40.236 39.789 39.789 0 0 0 -19.469 7.758v-24.022c0-16.81 0-44.944-36.422-63.155a8.678 8.678 0 0 0 -1.006-.42c-.758-.263-18.572-6.637-18.572-24.425s17.814-24.162 18.53-24.41a7.98 7.98 0 0 0 1.048-.435c36.422-18.211 36.422-46.345 36.422-63.155v-104h8a8 8 0 0 0 8-8v-32a8 8 0 0 0 -8-8h-224a8 8 0 0 0 -8 8v32a8 8 0 0 0 8 8h8v104c0 16.81 0 44.944 36.422 63.155a7.98 7.98 0 0 0 1.048.435c.185.061 18.53 6.385 18.53 24.41 0 17.788-17.814 24.162-18.53 24.41a7.98 7.98 0 0 0 -1.048.435c-36.422 18.211-36.422 46.345-36.422 63.155v104h-8a8 8 0 0 0 -8 8v32a8 8 0 0 0 8 8h208a39.964 39.964 0 0 0 32-16.028 39.958 39.958 0 0 0 64 0 39.982 39.982 0 0 0 68.531-40.236 39.993 39.993 0 0 0 0-79.472 39.8 39.8 0 0 0 3.049-22.018c11.062-7.525 28.924-14.449 55.185-10.342a8 8 0 0 0 9.135-6.669zm-146.467-45.6a36.278 36.278 0 0 1 -16.76-9.026l22.9-11.45a8 8 0 0 0 .86-13.811c-14.989-9.992-23.144-31.638-26.587-43.226 26.823-4.5 51.941 1.578 52.209 1.643a8 8 0 0 0 9.945-7.765v-20.108c31.239 15.432 31.983 42.878 32 44.108a8 8 0 0 0 10.53 7.59l12.991-4.33c-1.112 12.658-3.953 21.746-6.421 27.548a56.752 56.752 0 0 1 -3.27 6.533c-17.5-18.617-40.395-30.06-59.1-36.86a8 8 0 1 0 -5.468 15.038c23.819 8.661 42.186 20.338 54.9 34.846-8.622 10.1-19.841 18.345-28.163 23.7v-18.065a8 8 0 0 0 -12.438-6.656c-13.961 9.306-26.791 12.766-38.124 10.287zm42.567 44.365a24 24 0 1 1 -24 24 24.028 24.028 0 0 1 24-24zm-32 104a24 24 0 1 1 24-24 24.028 24.028 0 0 1 -24 24zm-32-104a24 24 0 1 1 -24 24 24.028 24.028 0 0 1 24-24zm-32 56a24 24 0 1 1 -24 24 24.028 24.028 0 0 1 24-24zm-232-344h208v16h-208zm192 32v16h-176v-16zm-148.832 231.361c4.41-1.646 28.832-12.007 28.832-39.361s-24.422-37.715-28.832-39.361c-27.168-13.777-27.168-33.098-27.168-48.639v-72h176v72c0 15.541 0 34.862-27.169 48.639-4.409 1.647-28.831 12.007-28.831 39.361s24.422 37.714 28.831 39.361c27.169 13.777 27.169 33.098 27.169 48.639v72h-176v-72c0-15.541 0-34.862 27.168-48.639zm-27.168 136.639h152.022a39.841 39.841 0 0 0 -7.217 16h-144.805zm-16 32h160.805a39.841 39.841 0 0 0 7.217 16h-168.022zm200 16a24 24 0 1 1 24-24 24.028 24.028 0 0 1 -24 24zm64 0a24 24 0 1 1 24-24 24.028 24.028 0 0 1 -24 24zm64 0a24 24 0 1 1 24-24 24.028 24.028 0 0 1 -24 24zm56-80a24 24 0 1 1 -24-24 24.028 24.028 0 0 1 24 24zm-43.362-93.942c8.708-5.282 22.1-14.435 33.126-26.413q1.941 3.326 3.561 6.808a72.6 72.6 0 0 1 6.8 27.08 81.546 81.546 0 0 0 -22.192 9.325 40.19 40.19 0 0 0 -21.295-16.8z"/></svg>